<svg width="732" height="479" viewBox="0 0 732 479" fill="none" xmlns="http://www.w3.org/2000/svg">
<rect width="732" height="479" fill="#E5E5E5"/>
<rect width="732" height="479" fill="#4F05C9"/>
<g clip-path="url(#clip0_0_1)">
<path fill-rule="evenodd" clip-rule="evenodd" d="M463.646 0H236.369L-5.08134e-05 225.13V319.032L463.646 0Z" fill="url(#paint0_linear_0_1)"/>
<path fill-rule="evenodd" clip-rule="evenodd" d="M587.21 479.599L231.122 479.516L-0.000148223 296.202V219.741L587.21 479.599Z" fill="url(#paint1_linear_0_1)"/>
<path d="M390.993 366.435C406.022 366.435 418.206 353.3 418.206 337.096C418.206 320.893 406.022 307.757 390.993 307.757C375.963 307.757 363.779 320.893 363.779 337.096C363.779 353.3 375.963 366.435 390.993 366.435Z" stroke="url(#paint2_linear_0_1)" stroke-width="17"/>
<path opacity="0.558" d="M629.042 423.166L616.475 409.618C615.824 408.916 614.769 408.916 614.118 409.618L601.551 423.166C600.9 423.867 600.9 425.005 601.551 425.706L614.118 439.254C614.769 439.956 615.824 439.956 616.475 439.254L629.042 425.706C629.692 425.005 629.692 423.867 629.042 423.166Z" fill="url(#paint3_linear_0_1)"/>
<path opacity="0.503" d="M731.486 60.7592L711.85 39.5901C711.2 38.8887 710.145 38.8887 709.494 39.5901L689.858 60.7592C689.207 61.4606 689.207 62.598 689.858 63.2994L709.494 84.4684C710.145 85.1699 711.2 85.1699 711.85 84.4684L731.486 63.2994C732.137 62.598 732.137 61.4606 731.486 60.7592Z" fill="url(#paint4_linear_0_1)"/>
<path opacity="0.558" d="M530.468 36.8265L520.258 25.8186C519.607 25.1172 518.552 25.1172 517.901 25.8186L507.691 36.8265C507.04 37.528 507.04 38.6653 507.691 39.3668L517.901 50.3747C518.552 51.0762 519.607 51.0762 520.258 50.3747L530.468 39.3668C531.119 38.6653 531.119 37.528 530.468 36.8265Z" fill="url(#paint5_linear_0_1)"/>
<path opacity="0.558" d="M402.174 110.473L391.963 99.4649C391.313 98.7634 390.258 98.7634 389.607 99.4649L379.396 110.473C378.746 111.174 378.746 112.312 379.396 113.013L389.607 124.021C390.258 124.722 391.313 124.722 391.963 124.021L402.174 113.013C402.825 112.312 402.825 111.174 402.174 110.473Z" fill="url(#paint6_linear_0_1)"/>
<path opacity="0.387" d="M693.308 362.432L687.418 356.081C687.201 355.847 686.849 355.847 686.632 356.081L680.741 362.432C680.525 362.666 680.525 363.045 680.741 363.279L686.632 369.629C686.849 369.863 687.201 369.863 687.418 369.629L693.308 363.279C693.525 363.045 693.525 362.666 693.308 362.432Z" fill="url(#paint7_linear_0_1)"/>
<path opacity="0.211" fill-rule="evenodd" clip-rule="evenodd" d="M53.582 441.522L60.0619 434.536C60.5827 433.975 61.289 433.659 62.0255 433.659C62.762 433.659 63.4683 433.975 63.9891 434.536C64.5098 435.097 64.8024 435.859 64.8024 436.653C64.8024 437.447 64.5098 438.208 63.9891 438.77L57.5092 445.756L63.9891 452.741C64.5098 453.303 64.8024 454.064 64.8024 454.858C64.8024 455.652 64.5098 456.414 63.9891 456.975C63.4683 457.537 62.762 457.852 62.0255 457.852C61.289 457.852 60.5827 457.537 60.0619 456.975L53.582 449.989L47.1022 456.975C46.5814 457.537 45.8751 457.852 45.1386 457.852C44.4021 457.852 43.6958 457.537 43.175 456.975C42.6542 456.414 42.3617 455.652 42.3617 454.858C42.3617 454.064 42.6542 453.303 43.175 452.741L49.6549 445.756L43.175 438.77C42.6542 438.208 42.3617 437.447 42.3617 436.653C42.3617 435.859 42.6542 435.097 43.175 434.536C43.6958 433.975 44.4021 433.659 45.1386 433.659C45.8751 433.659 46.5814 433.975 47.1022 434.536L53.582 441.522Z" fill="url(#paint8_linear_0_1)"/>
</g>
<defs>
<linearGradient id="paint0_linear_0_1" x1="673.447" y1="-280.994" x2="284.371" y2="462.484" gradientUnits="userSpaceOnUse">
<stop stop-color="#FF52C1"/>
<stop offset="0.0409" stop-color="#F952C5"/>
<stop offset="1" stop-color="#9952FF" stop-opacity="0"/>
</linearGradient>
<linearGradient id="paint1_linear_0_1" x1="963.378" y1="796.381" x2="705.153" y2="-3.66497" gradientUnits="userSpaceOnUse">
<stop stop-color="#FF52C1"/>
<stop offset="0.0409" stop-color="#F952C5"/>
<stop offset="1" stop-color="#9952FF" stop-opacity="0"/>
</linearGradient>
<linearGradient id="paint2_linear_0_1" x1="418.206" y1="373.108" x2="343.56" y2="280.784" gradientUnits="userSpaceOnUse">
<stop stop-color="#FF52C1"/>
<stop offset="1" stop-color="#9952FF"/>
</linearGradient>
<linearGradient id="paint3_linear_0_1" x1="617.785" y1="412.641" x2="614.941" y2="455.211" gradientUnits="userSpaceOnUse">
<stop stop-color="#FF52C1"/>
<stop offset="1" stop-color="#9952FF"/>
</linearGradient>
<linearGradient id="paint4_linear_0_1" x1="714.339" y1="44.6473" x2="710.149" y2="107.382" gradientUnits="userSpaceOnUse">
<stop stop-color="#FF52C1"/>
<stop offset="1" stop-color="#9952FF"/>
</linearGradient>
<linearGradient id="paint5_linear_0_1" x1="521.175" y1="28.1641" x2="518.781" y2="64.0126" gradientUnits="userSpaceOnUse">
<stop stop-color="#FF52C1"/>
<stop offset="1" stop-color="#9952FF"/>
</linearGradient>
<linearGradient id="paint6_linear_0_1" x1="392.881" y1="101.81" x2="390.486" y2="137.659" gradientUnits="userSpaceOnUse">
<stop stop-color="#FF52C1"/>
<stop offset="1" stop-color="#9952FF"/>
</linearGradient>
<linearGradient id="paint7_linear_0_1" x1="688.138" y1="357.579" x2="686.866" y2="376.623" gradientUnits="userSpaceOnUse">
<stop stop-color="#FF52C1"/>
<stop offset="1" stop-color="#9952FF"/>
</linearGradient>
<linearGradient id="paint8_linear_0_1" x1="58.0716" y1="421.337" x2="49.5196" y2="467.408" gradientUnits="userSpaceOnUse">
<stop stop-color="#FF52C1"/>
<stop offset="1" stop-color="#9952FF"/>
</linearGradient>
<clipPath id="clip0_0_1">
<rect width="732" height="479" fill="white"/>
</clipPath>
</defs>
</svg>
