<svg width="115" height="119" viewBox="0 0 115 119" fill="none" xmlns="http://www.w3.org/2000/svg">
<path d="M102.679 0H12.3214C9.05358 0 5.91958 1.3433 3.60886 3.73439C1.29815 6.12548 0 9.36849 0 12.75L0 106.25C0 109.632 1.29815 112.875 3.60886 115.266C5.91958 117.657 9.05358 119 12.3214 119H47.553V78.5427H31.3811V59.5H47.553V44.9863C47.553 28.4777 57.0508 19.3587 71.5978 19.3587C78.5645 19.3587 85.8496 20.6444 85.8496 20.6444V36.8475H77.8227C69.9138 36.8475 67.447 41.9262 67.447 47.1352V59.5H85.1026L82.2789 78.5427H67.447V119H102.679C105.946 119 109.08 117.657 111.391 115.266C113.702 112.875 115 109.632 115 106.25V12.75C115 9.36849 113.702 6.12548 111.391 3.73439C109.08 1.3433 105.946 0 102.679 0V0Z" fill="white"/>
</svg>
