<svg width="190" height="34" viewBox="0 0 190 34" fill="none" xmlns="http://www.w3.org/2000/svg">
<g clip-path="url(#clip0_2_2)">
<path d="M22.1794 0.566342C16.0536 0.562802 9.66201 2.10255 3.21096 4.09978C2.3918 4.28384 1.59246 4.88204 1.16979 5.62181C0.781223 6.31912 0.640071 7.01908 0.51874 7.75268C-0.107727 11.671 -0.0315992 15.5186 0.0984521 19.7821C0.127 20.7581 0.257052 21.9147 0.665442 22.6182C1.09208 23.3288 1.82322 23.7801 2.69631 23.928C3.81174 24.1104 4.93067 24.2653 6.05227 24.3925L5.80485 32.0894C5.7668 32.7018 6.03483 33.2106 6.36788 33.5035C6.66605 33.7566 6.99831 33.8689 7.33933 33.8972C8.0213 33.9548 8.82143 33.6291 9.21871 32.7849C10.9593 29.047 12.0513 27.3968 14.228 24.9136C19.9043 25.0695 24.8598 24.7172 30.4702 24.2545C32.4535 24.1968 33.8151 22.3873 34.1751 20.9422C35.2512 17.1973 35.4185 12.5745 35.5327 7.90134C35.5811 6.04923 35.0054 4.23073 33.9863 3.26973C33.0173 2.3928 31.8437 2.0751 30.7684 1.74946C27.7811 0.994637 24.7931 0.58935 22.1794 0.566342ZM30.3394 3.49538C31.4162 3.82191 32.3655 4.13606 32.9642 4.6785C33.9634 5.86339 33.9301 6.65185 33.9158 7.93054C33.8032 12.463 33.6081 16.8619 32.6914 20.1953C32.2965 21.4387 31.6082 22.3235 30.3076 22.4572C24.5917 22.9288 19.6323 23.2934 13.8871 23.1111C13.7752 23.1072 13.6638 23.1287 13.5597 23.1747C13.4557 23.2207 13.3611 23.29 13.282 23.3784C10.8681 26.0985 9.63343 27.9887 7.79371 31.9408C7.75087 32.031 7.65811 32.0858 7.5439 32.0955C7.46696 32.0911 7.43604 32.0247 7.43131 31.9646L7.68028 23.6182C7.69538 23.1678 7.36228 22.7376 6.96104 22.689C5.61938 22.5459 4.28139 22.3631 2.94848 22.1404C2.37277 22.0422 2.16024 21.8661 2.00244 21.6041C1.72806 20.874 1.7344 20.4228 1.71299 19.721C1.58453 15.4956 1.52109 11.8029 2.10235 8.12876C2.15628 7.58542 2.33867 7.02971 2.53216 6.56512C2.85253 6.00586 3.34339 5.92357 3.83585 5.77136C10.1449 3.82722 16.3176 2.37332 22.1287 2.3689C24.9771 2.48394 27.9683 2.80251 30.3394 3.49538ZM8.54861 10.6543C7.6795 11.8162 7.76591 13.3939 8.43758 14.4505C8.78811 15.0036 9.33526 15.4487 10.0014 15.5496C10.8666 15.6292 11.4153 15.2381 12.0077 14.7886C13.0806 13.7479 13.1892 11.9321 12.3732 10.6206C11.9577 9.95256 11.2932 9.55169 10.6144 9.52337C9.68497 9.534 9.05375 9.99679 8.54861 10.6534V10.6543ZM17.9504 9.70565C17.0845 9.73663 16.3842 10.4056 15.9568 11.1277C15.4675 11.9533 15.1821 12.9869 15.5777 14.0001C16.339 15.9496 18.9694 15.9257 20.0185 13.9444C20.5023 13.0311 20.3785 11.9931 20.0185 11.2401C19.6601 10.4879 19.1177 9.87469 18.3287 9.73397C18.2037 9.71104 18.077 9.70156 17.9504 9.70565ZM25.583 9.88884C25.3133 9.88176 25.0358 9.91008 24.7757 9.98707C23.7353 10.2968 22.8495 11.4949 22.9835 13.0285C23.0518 13.8001 23.3697 14.5523 23.943 15.0709C24.5164 15.5885 25.349 15.8204 26.2269 15.6195C27.2356 15.3894 27.8605 14.4824 28.069 13.6063C28.2776 12.7303 28.2252 11.8374 27.7407 11.1136C27.4886 10.7395 27.1632 10.4346 26.7894 10.2224C26.4155 10.0101 26.0032 9.89602 25.5838 9.88884H25.583ZM10.5438 11.325C10.7381 11.3268 10.8911 11.3958 11.049 11.6489C11.4018 12.217 11.3035 13.078 10.9475 13.4232C10.593 13.7683 10.3717 13.7984 10.2163 13.7754C10.0609 13.7515 9.90308 13.632 9.7619 13.409C9.49226 12.9842 9.41298 12.2976 9.76747 11.8073C9.95617 11.5277 10.3028 11.3534 10.5446 11.325H10.5438ZM18.0638 11.5224C18.0939 11.5277 18.4317 11.7463 18.5935 12.0852C18.7553 12.4241 18.7854 12.7391 18.6316 13.0285C18.174 13.8922 17.201 13.6585 17.0535 13.2825C16.998 13.1391 17.04 12.563 17.3072 12.1144C17.5729 11.664 17.9075 11.4949 18.0638 11.5215V11.5224ZM26.441 12.1843C26.4902 12.2577 26.6099 12.7506 26.5171 13.1418C26.4236 13.5329 26.2713 13.7745 25.8986 13.8594C25.4212 13.9691 25.1532 13.8594 24.9525 13.6762C24.7511 13.4948 24.6155 13.1878 24.5862 12.8595C24.5148 12.0454 24.7765 11.8569 25.192 11.733C25.6757 11.6002 26.2229 11.8321 26.441 12.1843Z" fill="white"/>
<path d="M45.6859 4.2095C45.6985 3.97943 45.7739 3.77236 45.9134 3.58918C45.9814 3.49939 46.0667 3.42802 46.163 3.38049C46.2593 3.33295 46.3641 3.31052 46.4693 3.31487H51.8823C52.0647 3.31487 52.2526 3.39982 52.4468 3.56883C52.5379 3.64176 52.6118 3.73803 52.6628 3.84951C52.7133 3.96098 52.7399 4.08445 52.7388 4.2095V13.8488H61.7953V4.2095C61.7953 3.96527 61.8718 3.75554 62.0233 3.57944C62.1753 3.40246 62.3721 3.31398 62.6157 3.31398H67.9555C68.198 3.31398 68.4109 3.38211 68.5931 3.51751C68.7753 3.65378 68.8669 3.87058 68.8669 4.16879V32.6185C68.8669 32.9168 68.7873 33.1406 68.6291 33.2893C68.4718 33.4389 68.2647 33.5132 68.0101 33.5132H62.6157C62.3731 33.5132 62.1753 33.4389 62.0233 33.2893C61.8718 33.1406 61.7953 32.9176 61.7953 32.6185V21.0678H52.7388V32.6185C52.7388 32.9035 52.656 33.1229 52.4931 33.2796C52.3286 33.4353 52.1069 33.5132 51.8268 33.5132H46.4693C45.9594 33.5132 45.6985 33.2486 45.6859 32.7203V4.2095ZM95.5455 33.1681C95.3878 33.3167 95.2202 33.4115 95.0443 33.4522C94.8798 33.4916 94.7121 33.5125 94.544 33.5141H91.7924C91.5732 33.5141 91.3848 33.4698 91.2266 33.3814C91.0683 33.2929 90.9351 33.1743 90.8257 33.0257C90.7138 32.8713 90.6217 32.7 90.553 32.5168C90.4796 32.3255 90.4182 32.1285 90.3703 31.9275L89.806 29.3241C89.6233 29.7444 89.3594 30.2222 89.0127 30.7577C88.6379 31.3258 88.1933 31.8322 87.6915 32.2619C87.1569 32.731 86.5187 33.1239 85.778 33.4424C85.0367 33.761 84.1867 33.9203 83.2263 33.9203C81.8416 33.9203 80.584 33.6221 79.4538 33.0257C78.3477 32.4488 77.3633 31.617 76.5659 30.5851C75.7705 29.555 75.1536 28.3516 74.7169 26.9746C74.2791 25.5995 74.0599 24.1315 74.0599 22.573V9.25258C74.0599 8.73757 74.1609 8.34822 74.3613 8.08362C74.5612 7.81903 74.8798 7.68719 75.3176 7.68719H79.5267C80.0504 7.68719 80.408 7.78452 80.6022 7.98187C80.7963 8.17831 80.8942 8.56148 80.8942 9.13048V22.3687C80.8942 22.9528 81.0129 23.5048 81.2492 24.027C81.4866 24.5491 81.7989 25.0092 82.1883 25.4092C82.5766 25.8091 83.017 26.1251 83.5094 26.3553C84.0008 26.5852 84.5021 26.7003 85.0128 26.7003C85.45 26.7003 85.9024 26.5852 86.3704 26.3553C86.8415 26.1222 87.2777 25.8099 87.6639 25.4295C88.059 25.0437 88.3839 24.5889 88.6394 24.0667C88.8945 23.5448 89.0215 22.9925 89.0215 22.4103V9.19153C89.0215 8.96145 89.0611 8.73138 89.1402 8.50041C89.2198 8.27034 89.338 8.09336 89.4957 7.97124C89.6535 7.86328 89.8023 7.78896 89.9424 7.74824C90.0819 7.70754 90.2432 7.6863 90.4249 7.6863H94.544C95.0656 7.6863 95.4425 7.82966 95.6731 8.11371C95.9037 8.39866 96.0198 8.77827 96.0198 9.25258V32.0088C96.0198 32.2655 95.9682 32.5035 95.8652 32.7203C95.7621 32.9371 95.6195 33.107 95.4368 33.2282L95.5455 33.1681ZM116.703 30.3612C116.375 30.7275 116.013 31.1203 115.619 31.5407C115.224 31.9611 114.79 32.3549 114.317 32.7203C113.84 33.0881 113.326 33.3919 112.786 33.6255C112.222 33.8665 111.622 33.987 111.018 33.9813C109.366 33.9813 107.844 33.6362 106.453 32.9442C105.096 32.28 103.874 31.3147 102.862 30.1072C101.86 28.9072 101.076 27.494 100.512 25.8668C99.9468 24.2402 99.6641 22.4917 99.6641 20.6201C99.6641 18.7353 99.9468 16.9831 100.512 15.3638C101.076 13.7444 101.86 12.3338 102.862 11.1339C103.873 9.92754 105.095 8.96555 106.453 8.30751C107.844 7.62259 109.366 7.28012 111.018 7.28012C111.686 7.28012 112.297 7.38897 112.85 7.60578C113.383 7.81197 113.891 8.09202 114.362 8.43936C114.818 8.77827 115.236 9.16144 115.619 9.58797C116.002 10.0154 116.363 10.4322 116.703 10.8392V1.54505C116.703 1.11144 116.822 0.745976 117.059 0.447764C117.296 0.148664 117.651 0 118.125 0H122.225C122.383 0 122.55 0.0371661 122.726 0.111498C122.902 0.186716 123.063 0.291135 123.21 0.42741C123.355 0.5628 123.473 0.725624 123.565 0.914994C123.656 1.10525 123.701 1.31497 123.701 1.54505V31.9478C123.701 32.992 123.21 33.5141 122.225 33.5141H118.653C118.411 33.5141 118.222 33.4787 118.089 33.4115C117.956 33.3451 117.841 33.2441 117.751 33.1168C117.65 32.9675 117.567 32.8034 117.505 32.6292C117.419 32.3995 117.328 32.1724 117.232 31.9478L116.703 30.3612ZM106.225 20.6201C106.219 21.4754 106.345 22.3252 106.598 23.1323C106.847 23.911 107.203 24.5863 107.665 25.1552C108.131 25.7288 108.699 26.189 109.332 26.5074C109.982 26.8401 110.702 27.0055 111.492 27.0055C112.269 27.0055 113.001 26.8498 113.688 26.5384C114.355 26.2403 114.964 25.8016 115.482 25.2464C115.997 24.6904 116.414 24.0319 116.713 23.3049C117.022 22.5589 117.196 21.759 117.232 20.9051V20.6201C117.235 19.7691 117.086 18.926 116.795 18.1397C116.512 17.3689 116.101 16.6649 115.583 16.0655C115.063 15.4667 114.445 14.9867 113.761 14.6523C113.045 14.3028 112.272 14.1261 111.492 14.1337C110.702 14.1337 109.982 14.3063 109.332 14.6523C108.682 14.9974 108.126 15.4691 107.665 16.0655C107.196 16.6761 106.834 17.3797 106.598 18.1397C106.348 18.9367 106.222 19.7757 106.226 20.6201H106.225ZM144.86 30.3612C144.531 30.7275 144.169 31.1203 143.775 31.5407C143.38 31.9611 142.945 32.3549 142.472 32.7203C141.995 33.0881 141.482 33.3919 140.941 33.6255C140.377 33.8665 139.777 33.987 139.173 33.9813C137.521 33.9813 135.999 33.6362 134.609 32.9442C133.251 32.28 132.03 31.3148 131.018 30.1072C130.016 28.9072 129.232 27.494 128.667 25.8668C128.103 24.2402 127.82 22.4917 127.82 20.6201C127.82 18.7353 128.103 16.9831 128.667 15.3638C129.232 13.7444 130.015 12.3338 131.018 11.1339C132.029 9.92744 133.251 8.96545 134.609 8.30751C135.999 7.62259 137.521 7.28012 139.173 7.28012C139.842 7.28012 140.452 7.38897 141.005 7.60578C141.538 7.81197 142.046 8.09202 142.517 8.43936C142.973 8.77827 143.392 9.16144 143.775 9.58797C144.158 10.0154 144.519 10.4322 144.859 10.8392V1.54505C144.859 1.11144 144.978 0.745976 145.214 0.447764C145.452 0.148664 145.807 0 146.281 0H150.381C150.539 0 150.705 0.0371661 150.881 0.111498C151.058 0.186716 151.219 0.291135 151.365 0.42741C151.51 0.5628 151.629 0.725624 151.72 0.914994C151.811 1.10525 151.857 1.31497 151.857 1.54505V31.9478C151.857 32.992 151.365 33.5141 150.381 33.5141H146.809C146.566 33.5141 146.377 33.4787 146.244 33.4115C146.112 33.345 145.997 33.244 145.907 33.1168C145.806 32.9675 145.723 32.8034 145.661 32.6292C145.575 32.3995 145.484 32.1724 145.387 31.9478L144.859 30.3612H144.86ZM134.38 20.6201C134.374 21.4754 134.5 22.3252 134.754 23.1323C135.004 23.911 135.359 24.5863 135.82 25.1552C136.287 25.7288 136.855 26.189 137.488 26.5074C138.138 26.8401 138.857 27.0055 139.647 27.0055C140.424 27.0055 141.156 26.8498 141.843 26.5384C142.51 26.2403 143.12 25.8017 143.638 25.2464C144.153 24.6902 144.57 24.0318 144.867 23.3049C145.178 22.5589 145.351 21.759 145.387 20.9051V20.6201C145.391 19.7691 145.242 18.926 144.95 18.1397C144.668 17.3689 144.256 16.6649 143.738 16.0655C143.219 15.4667 142.6 14.9867 141.916 14.6523C141.201 14.3028 140.428 14.1261 139.647 14.1337C138.857 14.1337 138.137 14.3063 137.488 14.6523C136.837 14.9974 136.282 15.4691 135.82 16.0655C135.351 16.6761 134.989 17.3797 134.754 18.1397C134.503 18.9367 134.377 19.7757 134.381 20.6201H134.38ZM156.705 1.5654C156.705 1.1318 156.802 0.766329 156.996 0.468116C157.191 0.169018 157.525 0.0203529 157.999 0.0203529H162.463C162.585 0.0203529 162.713 0.057519 162.846 0.131851C162.986 0.212012 163.113 0.318931 163.22 0.447764C163.335 0.583154 163.432 0.745976 163.511 0.935347C163.591 1.1256 163.631 1.33532 163.631 1.5654V31.9478C163.631 32.4628 163.499 32.8522 163.238 33.1168C162.977 33.3814 162.64 33.5132 162.227 33.5132H157.999C157.525 33.5132 157.191 33.3804 156.996 33.1168C156.802 32.8522 156.705 32.462 156.705 31.9478V1.5654ZM187.394 30.4223C186.337 31.5114 185.116 32.3825 183.786 32.9946C182.44 33.6138 180.996 33.9286 179.54 33.9203C177.874 33.9203 176.302 33.5813 174.82 32.9026C173.371 32.2492 172.047 31.2936 170.92 30.0869C169.797 28.8778 168.893 27.438 168.259 25.8464C167.602 24.2198 167.275 22.451 167.275 20.5386C167.275 19.3458 167.405 18.1902 167.667 17.0716C167.92 15.9772 168.293 14.922 168.779 13.9302C169.259 12.954 169.846 12.0487 170.528 11.2357C171.208 10.4212 171.983 9.71308 172.833 9.13048C173.698 8.54037 174.629 8.08205 175.603 7.76772C176.628 7.43812 177.689 7.27393 178.755 7.28012C179.764 7.28012 180.742 7.42967 181.689 7.72789C182.637 8.0261 183.528 8.44644 184.359 8.98801C185.192 9.53045 185.953 10.1817 186.647 10.941C187.33 11.6876 187.93 12.5241 188.432 13.432C188.93 14.3333 189.32 15.3043 189.59 16.3195C189.863 17.3433 190 18.3973 190 19.4812C190 20.1865 189.991 20.7625 189.972 21.2104C189.954 21.6572 189.859 22.0138 189.69 22.2776C189.52 22.543 189.238 22.7253 188.842 22.8262C188.447 22.9288 187.867 22.9792 187.103 22.9792H173.982C174.103 23.8465 174.349 24.5721 174.719 25.1561C175.062 25.7089 175.499 26.1818 176.004 26.5481C176.49 26.8942 177.006 27.141 177.553 27.2915C178.06 27.4346 178.58 27.5095 179.102 27.5144C179.54 27.5144 179.988 27.4631 180.45 27.3623C180.905 27.2626 181.353 27.1266 181.79 26.9551C182.199 26.7966 182.595 26.599 182.974 26.3649C183.332 26.1419 183.621 25.9073 183.84 25.6641C184.035 25.487 184.202 25.3553 184.341 25.2668C184.481 25.1782 184.63 25.1349 184.788 25.1349C184.946 25.1349 185.106 25.1968 185.271 25.318C185.471 25.4739 185.657 25.6508 185.826 25.8464L187.758 28.287C187.891 28.4639 187.977 28.6232 188.014 28.7648C188.05 28.9072 188.068 29.0532 188.068 29.2019C188.068 29.4736 188.001 29.7073 187.868 29.9037C187.733 30.1013 187.573 30.2759 187.394 30.4223H187.394ZM178.629 13.4824C178.154 13.4824 177.696 13.5877 177.253 13.7975C176.803 14.0118 176.382 14.296 176.004 14.6417C175.615 14.9939 175.266 15.3938 174.956 15.8416C174.66 16.2638 174.406 16.7208 174.2 17.2043H183.512C183.268 16.6945 182.991 16.2051 182.683 15.7398C182.391 15.2985 182.048 14.9019 181.662 14.5603C181.268 14.2146 180.825 13.9465 180.35 13.7674C179.858 13.5771 179.284 13.4824 178.629 13.4824Z" fill="white"/>
</g>
<defs>
<clipPath id="clip0_2_2">
<rect width="190" height="34" fill="white"/>
</clipPath>
</defs>
</svg>
