<svg width="123" height="120" viewBox="0 0 123 120" fill="none" xmlns="http://www.w3.org/2000/svg">
<path d="M61.5 45.7125C58.6038 45.7136 55.7729 46.5524 53.3653 48.123C50.9578 49.6936 49.0816 51.9253 47.974 54.5361C46.8664 57.1469 46.5772 60.0195 47.1429 62.7906C47.7086 65.5618 49.1038 68.1071 51.1521 70.1047C53.2004 72.1023 55.8098 73.4625 58.6505 74.0134C61.4911 74.5642 64.4354 74.281 67.111 73.1994C69.7867 72.1179 72.0735 70.2866 73.6825 67.9372C75.2914 65.5877 76.1502 62.8256 76.1502 60C76.1473 56.2107 74.6027 52.5774 71.8557 49.8985C69.1087 47.2195 65.3841 45.7139 61.5 45.7125V45.7125ZM95.7396 34.7304C94.994 32.8871 93.8682 31.2129 92.432 29.8117C90.9958 28.4105 89.2798 27.3122 87.3904 26.5848C81.6248 24.3643 67.8971 24.8625 61.5 24.8625C55.1029 24.8625 41.389 24.3455 35.6069 26.5848C33.7175 27.3122 32.0015 28.4105 30.5652 29.8117C29.129 31.2129 28.0032 32.8871 27.2577 34.7304C24.9844 40.3554 25.4923 53.7616 25.4923 59.9973C25.4923 66.233 24.9844 79.6232 27.2687 85.267C28.0142 87.1102 29.14 88.7844 30.5762 90.1856C32.0124 91.5868 33.7285 92.6851 35.6178 93.4125C41.3835 95.633 55.1111 95.1348 61.511 95.1348C67.9108 95.1348 81.6193 95.6518 87.4014 93.4125C89.2907 92.6851 91.0068 91.5868 92.443 90.1856C93.8792 88.7844 95.005 87.1102 95.7506 85.267C98.0431 79.642 97.5159 66.2357 97.5159 60C97.5159 53.7643 98.0431 40.3768 95.7506 34.733L95.7396 34.7304ZM61.5 81.9643C57.0473 81.9643 52.6945 80.6761 48.9922 78.2626C45.2899 75.8492 42.4043 72.4188 40.7003 68.4054C38.9964 64.3919 38.5505 59.9756 39.4192 55.715C40.2879 51.4543 42.4321 47.5407 45.5806 44.4689C48.7292 41.3971 52.7407 39.3052 57.1079 38.4578C61.475 37.6103 66.0017 38.0452 70.1155 39.7076C74.2293 41.3701 77.7454 44.1853 80.2192 47.7973C82.693 51.4093 84.0134 55.6559 84.0134 60C84.017 62.8854 83.4371 65.7431 82.307 68.4095C81.1769 71.076 79.5187 73.4987 77.4274 75.539C75.3362 77.5792 72.8529 79.197 70.1198 80.2995C67.3867 81.4021 64.4575 81.9678 61.5 81.9643V81.9643ZM84.9414 42.2411C83.9019 42.2416 82.8857 41.9414 82.0211 41.3784C81.1566 40.8153 80.4826 40.0148 80.0845 39.0781C79.6863 38.1413 79.5819 37.1104 79.7843 36.1157C79.9868 35.1211 80.487 34.2073 81.2218 33.49C81.9567 32.7728 82.893 32.2842 83.9124 32.0862C84.9319 31.8882 85.9886 31.9895 86.949 32.3775C87.9094 32.7655 88.7302 33.4226 89.3078 34.2657C89.8853 35.1089 90.1936 36.1002 90.1936 37.1143C90.1965 37.7877 90.0631 38.4551 89.801 39.0781C89.5389 39.7011 89.1534 40.2675 88.6664 40.7448C88.1795 41.2221 87.6007 41.6009 86.9634 41.8595C86.326 42.1181 85.6426 42.2514 84.9524 42.2518L84.9414 42.2411ZM109.821 0H13.1786C9.6834 0 6.33138 1.35459 3.85991 3.76577C1.38845 6.17695 0 9.44722 0 12.8571L0 107.143C0 110.553 1.38845 113.823 3.85991 116.234C6.33138 118.645 9.6834 120 13.1786 120H109.821C113.317 120 116.669 118.645 119.14 116.234C121.612 113.823 123 110.553 123 107.143V12.8571C123 9.44722 121.612 6.17695 119.14 3.76577C116.669 1.35459 113.317 0 109.821 0V0ZM105.121 77.6786C104.767 84.5437 103.161 90.6268 98.0239 95.625C92.887 100.623 86.6573 102.222 79.6288 102.549C72.3778 102.948 50.6387 102.948 43.3877 102.549C36.3509 102.204 30.1377 100.634 24.9926 95.625C19.8475 90.6161 18.2304 84.5304 17.8954 77.6786C17.4863 70.6018 17.4863 49.3902 17.8954 42.3214C18.2496 35.4562 19.8365 29.3732 24.9926 24.375C30.1487 19.3768 36.3783 17.7964 43.3877 17.4696C50.6387 17.0705 72.3778 17.0705 79.6288 17.4696C86.6656 17.8152 92.8979 19.3848 98.0239 24.3937C103.15 29.4027 104.786 35.4884 105.121 42.3536C105.53 49.4036 105.53 70.5964 105.121 77.6786Z" fill="white"/>
</svg>
