<svg width="151" height="152" viewBox="0 0 151 152" fill="none" xmlns="http://www.w3.org/2000/svg">
<path d="M134.821 0H16.1786C7.24665 0 0 7.29464 0 16.2857V135.714C0 144.705 7.24665 152 16.1786 152H134.821C143.753 152 151 144.705 151 135.714V16.2857C151 7.29464 143.753 0 134.821 0ZM118.34 53.8786C118.407 54.8286 118.407 55.8125 118.407 56.7625C118.407 86.1786 96.1614 120.073 55.5127 120.073C42.9743 120.073 31.346 116.409 21.5714 110.098C23.3578 110.302 25.0768 110.37 26.8969 110.37C37.2444 110.37 46.7493 106.841 54.333 100.87C44.6259 100.666 36.4692 94.2536 33.6717 85.4321C37.0759 85.9411 40.1431 85.9411 43.6484 85.025C33.5368 82.9554 25.9531 73.9982 25.9531 63.175V62.9036C28.8855 64.5661 32.3234 65.5839 35.9299 65.7196C32.8979 63.6895 30.4123 60.9353 28.695 57.7028C26.9776 54.4704 26.082 50.8603 26.0879 47.1946C26.0879 43.0554 27.1665 39.2554 29.0877 35.9643C39.9746 49.4679 56.3217 58.2893 74.6574 59.2393C71.5228 44.1411 82.7467 31.8929 96.2288 31.8929C102.599 31.8929 108.329 34.5732 112.374 38.9161C117.362 37.9661 122.148 36.1 126.395 33.5554C124.744 38.7125 121.272 43.0554 116.688 45.8036C121.137 45.3286 125.451 44.0732 129.429 42.3429C126.429 46.7875 122.654 50.7232 118.34 53.8786Z" fill="white"/>
</svg>
